<svg id="Layer_1" data-name="Layer 1" xmlns="http://www.w3.org/2000/svg" viewBox="0 0 143.29 24.37"><defs><style>.cls-1{fill:#fff;}</style></defs><title>be-boulder-white</title><path class="cls-1" d="M146.75,29.72h5.9v-7.1h-5.9Zm-9.74,0h6.5V20.34c0-2.14.53-3.31,2.78-3.31.66,0,.93,0,1.23,0l.81.1V11.24a4.86,4.86,0,0,0-1.11-.1,4.37,4.37,0,0,0-3.85,3.15h-.06V11.61H137ZM130.42,18.3h-2.81V17.23c0-1.77.43-2.28,1.37-2.28s1.44.51,1.44,2.28Zm-2.81,3.42h8.9v-.3c0-5.66-.07-10.28-7.46-10.28-7.16,0-7.93,4.42-7.93,9.5s.77,9.55,7.93,9.55a8.13,8.13,0,0,0,5.32-1.58c1.27-1.07,1.94-2.78,1.94-5.25h-5.89c0,1.84-.13,3-1.41,3s-1.4-1.31-1.4-2.28Zm-13.56-1.08c0,3.42-.2,4.73-1.47,4.73s-1.47-1.31-1.47-4.73.2-4.68,1.47-4.68,1.47,1.31,1.47,4.68m-.1-6.92h-.07a4.17,4.17,0,0,0-4-2.58c-4.52,0-5.26,4.15-5.26,9.24,0,4.28,0,9.81,5.66,9.81,2.81,0,3.48-1.68,3.72-2.55h.06v2.08h6.39V5.81H114Zm-16.87,16h6.5V5.81h-6.5Zm-7.6,0h6.3V11.61h-6.5v12c0,1-.43,1.78-1.3,1.78S86.7,25,86.7,23.59v-12H80.21v14c0,3.31,2.11,4.59,4.42,4.59a5,5,0,0,0,4.79-2.55h.06ZM70.17,20.64c0-4.21.27-5.32,1.44-5.32s1.44,1.11,1.44,5.32S72.78,26,71.61,26s-1.44-1.11-1.44-5.33m1.44-9.5c-7.16,0-7.93,4.42-7.93,9.5s.77,9.55,7.93,9.55,7.93-4.42,7.93-9.55-.77-9.5-7.93-9.5m-18.24-.5h.9c1.38,0,2,.77,2,2.3,0,1.75-1.07,2.28-1.94,2.28h-1Zm-6.7,19.08h10c4.12,0,6.9-2.11,6.9-6.9s-3-5.49-4.39-5.62v-.07C60.7,16.79,63,15.49,63,11.74c0-3.95-2.51-5.93-6.7-5.93H46.67Zm6.7-10.28h1.2c1.54,0,2.11,1.27,2.11,2.88s-.67,2.57-2.14,2.57H53.37ZM35.66,18.3H32.85V17.23c0-1.77.44-2.28,1.37-2.28s1.44.51,1.44,2.28Zm-2.81,3.42h8.9v-.3c0-5.66-.06-10.28-7.46-10.28-7.16,0-7.93,4.42-7.93,9.5s.77,9.55,7.93,9.55a8.13,8.13,0,0,0,5.32-1.58c1.28-1.07,1.94-2.78,1.94-5.25H35.66c0,1.84-.13,3-1.4,3s-1.41-1.31-1.41-2.28ZM16.05,10.64H17c1.37,0,2,.77,2,2.3,0,1.75-1.07,2.28-1.94,2.28h-1ZM9.35,29.72h10c4.12,0,6.9-2.11,6.9-6.9s-3.05-5.49-4.39-5.62v-.07c1.51-.34,3.82-1.64,3.82-5.39,0-3.95-2.51-5.93-6.7-5.93H9.35Zm6.7-10.28h1.2c1.54,0,2.11,1.27,2.11,2.88s-.67,2.57-2.14,2.57H16.05Z" transform="translate(-9.35 -5.81)"/></svg>