<svg id="Layer_1" data-name="Layer 1" xmlns="http://www.w3.org/2000/svg" viewBox="0 0 737.57469 79.6348"><defs><style>.cls-1{fill:#231f20;}.cls-2{fill:#cfb87c;}.cls-3{fill:#fff;}</style></defs><title>cu-boulder-logo-text-black</title><path class="cls-1" d="M415.68553,365.0848h3.22409v20.95737c-.04772,7.87165,3.69813,10.85923,9.91,10.85923,6.25893,0,10.00478-2.98758,9.95707-10.85923V365.0848h3.22423v21.66867c0,6.97082-3.746,12.89753-13.1813,12.89753-9.38893,0-13.134-5.9267-13.134-12.89753Z" transform="translate(-314.2837 -344.00681)"/><path class="cls-1" d="M447.88268,374.47312h2.98758v4.21976h.09484c1.09035-2.93986,4.3623-4.931,7.82393-4.931,6.87524,0,8.96126,3.6033,8.96126,9.43606V398.939h-2.98758V383.67179c0-4.2199-1.37472-7.397-6.21107-7.397-4.74152,0-7.58654,3.60329-7.68138,8.39267V398.939h-2.98758Z" transform="translate(-314.2837 -344.00681)"/><path class="cls-1" d="M473.44123,365.0848h2.98759v4.78863h-2.98759Zm0,9.38832h2.98759V398.939h-2.98759Z" transform="translate(-314.2837 -344.00681)"/><path class="cls-1" d="M479.41639,374.47312h3.31892l7.68138,21.479h.09484l7.58654-21.479h3.08241L492.02881,398.939h-3.17637Z" transform="translate(-314.2837 -344.00681)"/><path class="cls-1" d="M505.87636,387.51247c.04712,4.3623,2.3234,9.62632,8.06058,9.62632,4.3623,0,6.73269-2.5614,7.68138-6.25953h2.98684c-1.28,5.5475-4.50412,8.77173-10.66822,8.77173-7.77622,0-11.04817-5.97457-11.04817-12.94465,0-6.44832,3.27195-12.94451,11.04817-12.94451,7.87091,0,11.0003,6.87525,10.76306,13.75064Zm15.83679-2.51294c-.14256-4.505-2.93986-8.72476-7.77622-8.72476-4.88407,0-7.58654,4.26761-8.06058,8.72476Z" transform="translate(-314.2837 -344.00681)"/><path class="cls-1" d="M528.73244,374.47312h2.74945v5.737h.09558a9.0401,9.0401,0,0,1,9.24564-6.06926v2.98772a8.42759,8.42759,0,0,0-9.10382,8.77174V398.939h-2.98684Z" transform="translate(-314.2837 -344.00681)"/><path class="cls-1" d="M558.3218,381.63274c-.14314-3.69813-2.98831-5.358-6.40209-5.358-2.6555,0-5.78414,1.04338-5.78414,4.21975,0,2.6555,3.0347,3.60418,5.07359,4.1258l3.9825.90082c3.41377.521,6.97082,2.51294,6.97082,6.78055,0,5.31025-5.26313,7.34929-9.81585,7.34929-5.69005,0-9.5786-2.6555-10.05176-8.62992h2.98684c.2374,4.031,3.22423,6.11772,7.20674,6.11772,2.79879,0,6.68571-1.23306,6.68571-4.64756,0-2.845-2.6555-3.79357-5.35723-4.45714l-3.84069-.8537c-3.8884-1.04279-6.82753-2.37039-6.82753-6.54331,0-4.97876,4.88258-6.87525,9.19791-6.87525,4.88407,0,8.77247,2.56066,8.96215,7.87091Z" transform="translate(-314.2837 -344.00681)"/><path class="cls-1" d="M566.52568,365.0848h2.98684v4.78863h-2.98684Zm0,9.38832h2.98684V398.939h-2.98684Z" transform="translate(-314.2837 -344.00681)"/><path class="cls-1" d="M579.99269,374.47312h4.978v2.51295h-4.978v16.50081c0,1.9442.28363,3.08169,2.4181,3.2235a22.99516,22.99516,0,0,0,2.55992-.14181V399.13c-.90157,0-1.75394.0941-2.6555.0941-3.98251,0-5.35872-1.327-5.31085-5.49978V376.98607h-4.26761v-2.51295h4.26761v-7.34928h2.98832Z" transform="translate(-314.2837 -344.00681)"/><path class="cls-1" d="M586.53659,374.47312H589.713l8.06058,20.86254,7.53956-20.86254h2.98684l-10.622,28.21242c-1.70607,4.1258-2.70172,5.30951-6.44832,5.30951a7.70312,7.70312,0,0,1-2.275-.23576v-2.51368a10.38634,10.38634,0,0,0,2.039.23725c2.654,0,3.27047-1.56425,4.26613-3.84069l1.04338-2.79731Z" transform="translate(-314.2837 -344.00681)"/><path class="cls-1" d="M646.33192,386.70634c0,7.01795-4.07793,12.94465-11.56978,12.94465-7.49169,0-11.56977-5.9267-11.56977-12.94465s4.07808-12.94451,11.56977-12.94451C642.254,373.76183,646.33192,379.68854,646.33192,386.70634Zm-20.15272,0c0,5.21556,2.84517,10.43245,8.58294,10.43245,5.73643,0,8.58146-5.21689,8.58146-10.43245s-2.845-10.43156-8.58146-10.43156C629.02437,376.27478,626.1792,381.49093,626.1792,386.70634Z" transform="translate(-314.2837 -344.00681)"/><path class="cls-1" d="M660.22585,376.98607H655.3895V398.939h-2.98684V376.98607h-4.172v-2.51295h4.172v-2.22856c-.04772-4.2199,1.13748-7.15976,5.92745-7.15976a15.702,15.702,0,0,1,2.5122.18953v2.56006a12.26668,12.26668,0,0,0-2.18071-.23665c-3.31981,0-3.22423,2.086-3.2721,4.7415v2.13388h4.83635Z" transform="translate(-314.2837 -344.00681)"/><path class="cls-1" d="M701.57615,375.32609a10.2655,10.2655,0,0,0-10.38459-8.20225c-8.962,0-12.755,7.49111-12.755,14.88811s3.793,14.88945,12.755,14.88945c6.25879,0,10.24129-4.83694,10.85789-10.85923h3.22409c-.90008,8.29783-6.16321,13.60882-14.082,13.60882-10.66822,0-15.97921-8.39267-15.97921-17.639,0-9.24578,5.311-17.63845,15.97921-17.63845,6.40062,0,12.755,3.84069,13.60882,10.95259Z" transform="translate(-314.2837 -344.00681)"/><path class="cls-1" d="M731.54472,386.70634c0,7.01795-4.07793,12.94465-11.56978,12.94465s-11.56978-5.9267-11.56978-12.94465,4.07808-12.94451,11.56978-12.94451S731.54472,379.68854,731.54472,386.70634Zm-20.15272,0c0,5.21556,2.84517,10.43245,8.58294,10.43245,5.73643,0,8.58146-5.21689,8.58146-10.43245s-2.845-10.43156-8.58146-10.43156C714.23717,376.27478,711.392,381.49093,711.392,386.70634Z" transform="translate(-314.2837 -344.00681)"/><path class="cls-1" d="M736.05121,365.0848h2.98684V398.939h-2.98684Z" transform="translate(-314.2837 -344.00681)"/><path class="cls-1" d="M766.68262,386.70634c0,7.01795-4.07808,12.94465-11.56993,12.94465s-11.56978-5.9267-11.56978-12.94465,4.07808-12.94451,11.56978-12.94451S766.68262,379.68854,766.68262,386.70634Zm-20.15272,0c0,5.21556,2.845,10.43245,8.58279,10.43245,5.73643,0,8.58161-5.21689,8.58161-10.43245s-2.84517-10.43156-8.58161-10.43156C749.37492,376.27478,746.5299,381.49093,746.5299,386.70634Z" transform="translate(-314.2837 -344.00681)"/><path class="cls-1" d="M771.14124,374.47312h2.74945v5.737h.09558a9.04,9.04,0,0,1,9.24564-6.06926v2.98772a8.42759,8.42759,0,0,0-9.10383,8.77174V398.939h-2.98684Z" transform="translate(-314.2837 -344.00681)"/><path class="cls-1" d="M785.7933,381.96483c.28511-5.73718,4.31548-8.203,9.91-8.203,4.31546,0,9.00985,1.32775,9.00985,7.87091v12.99237a1.5909,1.5909,0,0,0,1.75393,1.80165,2.81045,2.81045,0,0,0,.94795-.18954v2.51369a8.2118,8.2118,0,0,1-1.94361.188c-3.03454,0-3.5092-1.70607-3.5092-4.26687h-.0941c-2.08674,3.17726-4.2199,4.97891-8.91429,4.97891-4.505,0-8.20388-2.22857-8.20388-7.15976,0-6.87524,6.68586-7.11264,13.13566-7.87091,2.46448-.28511,3.84069-.61645,3.84069-3.31967,0-4.03022-2.89274-5.02588-6.40209-5.02588-3.69739,0-6.44847,1.70681-6.54257,5.69005Zm15.933,3.60344h-.09557c-.37908.71115-1.70608.94854-2.51355,1.09035-5.07226.90156-11.3789.85385-11.3789,5.64308,0,2.98758,2.6555,4.83709,5.45279,4.83709,4.55126,0,8.58161-2.89363,8.53522-7.68212Z" transform="translate(-314.2837 -344.00681)"/><path class="cls-1" d="M832.21586,398.939h-2.75093V394.293h-.0941c-1.28077,3.17711-5.16918,5.358-8.72475,5.358-7.44413,0-11.001-6.02154-11.001-12.94465s3.55691-12.94451,11.001-12.94451c3.651,0,7.20674,1.84936,8.48736,5.358h.0941v-14.035h2.98832Zm-11.56978-1.80017c6.35289,0,8.58146-5.35871,8.58146-10.43245s-2.22857-10.43156-8.58146-10.43156c-5.6902,0-8.0142,5.358-8.0142,10.43156S814.95588,397.13879,820.64608,397.13879Z" transform="translate(-314.2837 -344.00681)"/><path class="cls-1" d="M859.81257,386.70634c0,7.01795-4.07793,12.94465-11.56978,12.94465s-11.56978-5.9267-11.56978-12.94465,4.07808-12.94451,11.56978-12.94451S859.81257,379.68854,859.81257,386.70634Zm-20.15272,0c0,5.21556,2.84517,10.43245,8.58294,10.43245,5.73643,0,8.58146-5.21689,8.58146-10.43245s-2.845-10.43156-8.58146-10.43156C842.505,376.27478,839.65984,381.49093,839.65984,386.70634Z" transform="translate(-314.2837 -344.00681)"/><path class="cls-1" d="M877.87853,365.0848H893.81c6.44847,0,10.81153,2.086,10.81153,8.39267a7.42725,7.42725,0,0,1-4.60046,7.06492c4.1258,1.18519,6.21256,4.3623,6.21256,8.5822,0,6.87524-5.83187,9.81437-11.949,9.81437H877.87853Zm7.44413,13.70292h7.53956c2.60763,0,4.55124-1.18519,4.55124-4.03022,0-3.22423-2.466-3.88855-5.12-3.88855h-6.97082Zm0,14.36709h7.96649c2.93914,0,5.499-.94795,5.499-4.45714,0-3.46163-2.18086-4.83635-5.35723-4.83635h-8.1083Z" transform="translate(-314.2837 -344.00681)"/><path class="cls-1" d="M922.45307,373.76183c7.72776,0,12.70726,5.12073,12.70726,12.94451,0,7.77622-4.9795,12.89694-12.70726,12.89694-7.68271,0-12.66088-5.12072-12.66088-12.89694C909.79219,378.88256,914.77036,373.76183,922.45307,373.76183Zm0,20.76844c4.599,0,5.97383-3.93538,5.97383-7.82393,0-3.93538-1.37487-7.87091-5.97383-7.87091-4.55256,0-5.92745,3.93553-5.92745,7.87091C916.52562,390.59489,917.90051,394.53027,922.45307,394.53027Z" transform="translate(-314.2837 -344.00681)"/><path class="cls-1" d="M962.52126,398.939H956.1192v-3.41228h-.14183a8.74481,8.74481,0,0,1-7.49185,4.0766c-7.16035,0-8.962-4.03037-8.962-10.09963V374.42527h6.73343v13.84547c0,4.031,1.18519,6.02228,4.31533,6.02228,3.65116,0,5.21541-2.039,5.21541-7.01794V374.42527h6.73358Z" transform="translate(-314.2837 -344.00681)"/><path class="cls-1" d="M967.83225,365.0848h6.73343V398.939h-6.73343Z" transform="translate(-314.2837 -344.00681)"/><path class="cls-1" d="M997.3739,395.8103h-.09543c-1.5644,2.6555-4.314,3.793-7.44413,3.793-7.39627,0-11.001-6.35363-11.001-13.13418,0-6.591,3.65118-12.70727,10.85923-12.70727A8.43351,8.43351,0,0,1,996.947,377.413h.0941V365.0848h6.73358V398.939H997.3739Zm-5.87971-16.97487c-4.4093,0-5.92745,3.793-5.92745,7.82319,0,3.84069,1.75539,7.87165,5.92745,7.87165,4.45727,0,5.78428-3.8884,5.78428-7.91862C997.27847,382.62841,995.85588,378.83543,991.49419,378.83543Z" transform="translate(-314.2837 -344.00681)"/><path class="cls-1" d="M1014.398,388.31846c.18955,4.26761,2.27629,6.21181,6.02154,6.21181,2.70321,0,4.88407-1.65984,5.311-3.17711h5.92745c-1.89723,5.78563-5.92745,8.25011-11.47583,8.25011-7.72761,0-12.51758-5.31026-12.51758-12.89694,0-7.34914,5.07362-12.94451,12.51758-12.94451,8.34569,0,12.37593,7.01781,11.90261,14.55663Zm10.95333-4.26761c-.61645-3.41376-2.08676-5.21541-5.35871-5.21541a5.30447,5.30447,0,0,0-5.59462,5.21541Z" transform="translate(-314.2837 -344.00681)"/><path class="cls-1" d="M1036.06871,374.42527h6.40209v4.552h.0941a8.66957,8.66957,0,0,1,7.82467-5.21542,5.0095,5.0095,0,0,1,1.46882.23725V380.258a12.26371,12.26371,0,0,0-2.4181-.23739c-4.93045,0-6.638,3.55632-6.638,7.87091V398.939h-6.73358Z" transform="translate(-314.2837 -344.00681)"/><polygon class="cls-2" points="59.598 20.07 59.598 10.923 48.699 0 10.934 0 0 10.921 0 48.621 10.934 59.534 22.928 59.534 22.928 68.708 33.949 79.635 65.816 79.635 76.865 68.718 76.865 39.513 82.492 39.513 82.492 20.07 59.598 20.07"/><polygon class="cls-1" points="48.232 1.132 58.463 11.393 58.463 21.204 81.357 21.204 81.357 38.386 75.73 38.386 75.73 68.242 65.352 78.499 34.412 78.499 24.063 68.242 24.063 58.403 11.4 58.403 1.133 48.145 1.133 11.392 11.4 1.132 48.232 1.132"/><polyline class="cls-3" points="12.574 55.567 26.893 55.567 26.893 67.06 35.578 75.667 64.189 75.667 72.898 67.06 72.898 35.55 78.529 35.55 78.529 24.036 61.258 24.036 61.258 64.167 38.404 64.167 38.404 55.567 47.053 55.567 55.635 46.972 55.635 35.55 44.123 35.55 44.123 44.084 38.404 44.084 38.404 24.036 21.182 24.036 21.182 35.55 26.893 35.55 26.893 44.084 15.449 44.084 15.449 15.368 44.123 15.368 44.123 24.036 55.635 24.036 55.635 12.567 47.053 3.964 12.574 3.964 3.961 12.563 3.961 46.972 12.574 55.567"/><polygon class="cls-2" points="36.984 54.151 46.467 54.151 54.217 46.39 54.217 36.968 45.543 36.968 45.543 45.499 36.984 45.499 36.984 25.456 22.598 25.456 22.598 34.138 28.31 34.138 28.31 45.499 14.035 45.499 14.035 13.954 45.543 13.954 45.543 22.62 54.217 22.62 54.217 13.151 46.467 5.38 13.162 5.38 5.379 13.151 5.379 46.39 13.158 54.151 28.31 54.151 28.31 66.468 36.164 74.256 63.605 74.256 71.484 66.464 71.484 34.138 77.109 34.138 77.109 25.456 62.674 25.456 62.674 65.579 36.984 65.579 36.984 54.151"/></svg>