<svg id="Layer_1" data-name="Layer 1" xmlns="http://www.w3.org/2000/svg" viewBox="0 0 868.22 79.63"><defs><style>.cls-1{fill:#cfb87c;}.cls-2{fill:#231f20;}.cls-3{fill:#fff;}</style></defs><title>cu-boulder-logo-text-black</title><polygon class="cls-1" points="59.6 20.07 59.6 10.92 48.7 0 10.93 0 0 10.92 0 48.62 10.93 59.53 22.93 59.53 22.93 68.71 33.95 79.64 65.82 79.64 76.86 68.72 76.86 39.51 82.49 39.51 82.49 20.07 59.6 20.07"/><polygon class="cls-2" points="48.23 1.13 58.46 11.39 58.46 21.2 81.36 21.2 81.36 38.39 75.73 38.39 75.73 68.24 65.35 78.5 34.41 78.5 24.06 68.24 24.06 58.4 11.4 58.4 1.13 48.15 1.13 11.39 11.4 1.13 48.23 1.13"/><polyline class="cls-3" points="12.57 55.57 26.89 55.57 26.89 67.06 35.58 75.67 64.19 75.67 72.9 67.06 72.9 35.55 78.53 35.55 78.53 24.04 61.26 24.04 61.26 64.17 38.4 64.17 38.4 55.57 47.05 55.57 55.63 46.97 55.63 35.55 44.12 35.55 44.12 44.08 38.4 44.08 38.4 24.04 21.18 24.04 21.18 35.55 26.89 35.55 26.89 44.08 15.45 44.08 15.45 15.37 44.12 15.37 44.12 24.04 55.63 24.04 55.63 12.57 47.05 3.96 12.57 3.96 3.96 12.56 3.96 46.97 12.57 55.57"/><polygon class="cls-1" points="36.98 54.15 46.47 54.15 54.22 46.39 54.22 36.97 45.54 36.97 45.54 45.5 36.98 45.5 36.98 25.46 22.6 25.46 22.6 34.14 28.31 34.14 28.31 45.5 14.04 45.5 14.04 13.95 45.54 13.95 45.54 22.62 54.22 22.62 54.22 13.15 46.47 5.38 13.16 5.38 5.38 13.15 5.38 46.39 13.16 54.15 28.31 54.15 28.31 66.47 36.16 74.26 63.6 74.26 71.48 66.46 71.48 34.14 77.11 34.14 77.11 25.46 62.67 25.46 62.67 65.58 36.98 65.58 36.98 54.15"/><path d="M167.76,214.68q-4,3.79-11.5,3.79-7.63,0-11.91-3.62t-4.28-11.52v-25.2h5.25v25.2q0,5.31,2.82,8t8.12,2.74q5,0,7.65-2.74t2.63-8v-25.2h5.25v25.2Q171.79,210.89,167.76,214.68Z" transform="translate(-40.28 -158.01)"/><path d="M183.84,189v4.53H184q2.93-5.2,9.29-5.2a12.39,12.39,0,0,1,4.7.77,7.74,7.74,0,0,1,3,2.16,8,8,0,0,1,1.63,3.29,17.71,17.71,0,0,1,.47,4.23v18.79h-4.7V198.24a5.68,5.68,0,0,0-1.55-4.2,5.76,5.76,0,0,0-4.26-1.55,9.57,9.57,0,0,0-3.73.66,7,7,0,0,0-2.63,1.88,8.1,8.1,0,0,0-1.58,2.85,11.56,11.56,0,0,0-.52,3.57v16.14h-4.7V189Z" transform="translate(-40.28 -158.01)"/><path d="M210.42,183.87v-5.75h4.7v5.75Zm4.7,5.14v28.57h-4.7V189Z" transform="translate(-40.28 -158.01)"/><path d="M230.26,217.58,219.65,189h5.25l8,23.82H233L240.82,189h4.92l-10.45,28.57Z" transform="translate(-40.28 -158.01)"/><path d="M270.28,215.76a13,13,0,0,1-8.07,2.43,14.68,14.68,0,0,1-5.94-1.11A11.7,11.7,0,0,1,252,214a13.13,13.13,0,0,1-2.57-4.75,22.84,22.84,0,0,1-1-6,17.19,17.19,0,0,1,1-6,14.26,14.26,0,0,1,2.79-4.7,12.66,12.66,0,0,1,4.26-3.09,13,13,0,0,1,5.39-1.11,11.73,11.73,0,0,1,6.33,1.57,12.53,12.53,0,0,1,4,4,15.85,15.85,0,0,1,2.1,5.31,22.78,22.78,0,0,1,.47,5.47H253.48a11.33,11.33,0,0,0,.44,3.56,8,8,0,0,0,1.6,3,7.9,7.9,0,0,0,2.82,2.07,9.72,9.72,0,0,0,4,.77,8.13,8.13,0,0,0,4.89-1.38,6.68,6.68,0,0,0,2.51-4.2h4.64A11.42,11.42,0,0,1,270.28,215.76Zm-1.13-18.35a8.06,8.06,0,0,0-1.71-2.57,8.16,8.16,0,0,0-2.54-1.71,8,8,0,0,0-3.23-.63,8.19,8.19,0,0,0-3.29.63,7.61,7.61,0,0,0-2.51,1.74,8.34,8.34,0,0,0-1.66,2.57,9.76,9.76,0,0,0-.72,3.12h16.41A9.64,9.64,0,0,0,269.15,197.41Z" transform="translate(-40.28 -158.01)"/><path d="M284,189v6h.11a12.72,12.72,0,0,1,4.2-5.14,10.56,10.56,0,0,1,6.3-1.55v5a13.3,13.3,0,0,0-4.81.77,7.57,7.57,0,0,0-3.21,2.27,9.36,9.36,0,0,0-1.77,3.62,19.53,19.53,0,0,0-.55,4.89v12.71h-4.7V189Z" transform="translate(-40.28 -158.01)"/><path d="M301.72,211.2a5,5,0,0,0,1.74,1.71,7.8,7.8,0,0,0,2.43.91,13.86,13.86,0,0,0,2.79.28,17.28,17.28,0,0,0,2.32-.17,8.54,8.54,0,0,0,2.24-.61,4.19,4.19,0,0,0,1.69-1.3,3.46,3.46,0,0,0,.66-2.18,3.13,3.13,0,0,0-1.38-2.76,11.76,11.76,0,0,0-3.45-1.52q-2.07-.58-4.5-1a23.3,23.3,0,0,1-4.5-1.33,9.32,9.32,0,0,1-3.45-2.4,6.25,6.25,0,0,1-1.38-4.31,6.85,6.85,0,0,1,1-3.7,7.9,7.9,0,0,1,2.49-2.51,11.44,11.44,0,0,1,3.43-1.44,15.83,15.83,0,0,1,3.79-.47,22.52,22.52,0,0,1,4.48.41,10.36,10.36,0,0,1,3.62,1.44,7.44,7.44,0,0,1,2.51,2.76,10.51,10.51,0,0,1,1.11,4.34h-4.7a4.77,4.77,0,0,0-.72-2.29,4.71,4.71,0,0,0-1.55-1.46,7.06,7.06,0,0,0-2.07-.8,10.68,10.68,0,0,0-2.29-.25,13.89,13.89,0,0,0-2.13.17,7.16,7.16,0,0,0-2,.58,4,4,0,0,0-1.44,1.11,2.79,2.79,0,0,0-.55,1.8,2.64,2.64,0,0,0,.86,2,6.82,6.82,0,0,0,2.18,1.33,19.07,19.07,0,0,0,3,.88l3.32.75a35.46,35.46,0,0,1,3.45.94,11.28,11.28,0,0,1,3,1.46,7.16,7.16,0,0,1,2.1,2.29,6.74,6.74,0,0,1,.8,3.43,8,8,0,0,1-1.08,4.31,8.41,8.41,0,0,1-2.82,2.76,11.8,11.8,0,0,1-3.92,1.46,23.27,23.27,0,0,1-4.34.41,20,20,0,0,1-4.53-.5,11.1,11.1,0,0,1-3.81-1.63,8.29,8.29,0,0,1-2.65-3,10.33,10.33,0,0,1-1.11-4.5H301A5.28,5.28,0,0,0,301.72,211.2Z" transform="translate(-40.28 -158.01)"/><path d="M326,183.87v-5.75h4.7v5.75Zm4.7,5.14v28.57H326V189Z" transform="translate(-40.28 -158.01)"/><path d="M350.25,189v4.15h-5.69v17.74a5.09,5.09,0,0,0,.14,1.33,1.37,1.37,0,0,0,.52.77,2.31,2.31,0,0,0,1.08.36,15.62,15.62,0,0,0,1.8.08h2.16v4.15h-3.59a16.88,16.88,0,0,1-3.12-.25,4.57,4.57,0,0,1-2.1-.91,3.88,3.88,0,0,1-1.19-1.88,10.82,10.82,0,0,1-.39-3.2V193.15H335V189h4.86v-8.57h4.7V189Z" transform="translate(-40.28 -158.01)"/><path d="M366.66,221.39a30,30,0,0,1-1.63,3.54,9.72,9.72,0,0,1-1.77,2.35,6,6,0,0,1-2.16,1.33,8.28,8.28,0,0,1-2.74.41,12.7,12.7,0,0,1-1.66-.11,7.91,7.91,0,0,1-1.6-.39v-4.31a8,8,0,0,0,1.41.47,6,6,0,0,0,1.35.19,4,4,0,0,0,2.4-.69,4.24,4.24,0,0,0,1.46-2l1.93-4.81L352.35,189h5.31L366,212.39h.11l8-23.38h5Z" transform="translate(-40.28 -158.01)"/><path d="M397.78,197.44a13.34,13.34,0,0,1,2.65-4.75,12.49,12.49,0,0,1,4.37-3.18,16,16,0,0,1,12,0,12.57,12.57,0,0,1,4.34,3.18,13.37,13.37,0,0,1,2.65,4.75,19,19,0,0,1,.88,5.89,18.78,18.78,0,0,1-.88,5.86,13.39,13.39,0,0,1-2.65,4.73,12.26,12.26,0,0,1-4.34,3.15,16.36,16.36,0,0,1-12,0,12.19,12.19,0,0,1-4.37-3.15,13.36,13.36,0,0,1-2.65-4.73,18.78,18.78,0,0,1-.88-5.86A19,19,0,0,1,397.78,197.44Zm4.78,10.5a9.63,9.63,0,0,0,1.91,3.37,8.26,8.26,0,0,0,2.85,2.07,8.66,8.66,0,0,0,6.91,0,8.27,8.27,0,0,0,2.85-2.07,9.65,9.65,0,0,0,1.91-3.37,15.76,15.76,0,0,0,0-9.23,10,10,0,0,0-1.91-3.4,8.13,8.13,0,0,0-2.85-2.1,8.66,8.66,0,0,0-6.91,0,8.12,8.12,0,0,0-2.85,2.1,10,10,0,0,0-1.91,3.4,15.74,15.74,0,0,0,0,9.23Z" transform="translate(-40.28 -158.01)"/><path d="M427.29,193.15V189h4.81v-4.26a6.69,6.69,0,0,1,2-5.28,8.58,8.58,0,0,1,5.89-1.8,12,12,0,0,1,1.52.11,8.17,8.17,0,0,1,1.52.33v4.09a5.84,5.84,0,0,0-1.33-.3,11.58,11.58,0,0,0-1.33-.08,4.55,4.55,0,0,0-2.65.66,2.92,2.92,0,0,0-.94,2.54v4h5.53v4.15H436.8v24.43h-4.7V193.15Z" transform="translate(-40.28 -158.01)"/><path d="M486.51,183.7a12.2,12.2,0,0,0-7.16-2.1,12.82,12.82,0,0,0-6.05,1.33,11.92,11.92,0,0,0-4.14,3.57,15.38,15.38,0,0,0-2.4,5.11,22.85,22.85,0,0,0-.77,6,25.55,25.55,0,0,0,.77,6.38,15.25,15.25,0,0,0,2.4,5.25,11.86,11.86,0,0,0,4.17,3.57,13,13,0,0,0,6.08,1.33,11.7,11.7,0,0,0,4.61-.86,10.44,10.44,0,0,0,3.48-2.38,11,11,0,0,0,2.29-3.62,15.08,15.08,0,0,0,1-4.53H496q-.77,7.46-5.14,11.61T479,218.46a19,19,0,0,1-8-1.57,15.73,15.73,0,0,1-5.69-4.34,18.6,18.6,0,0,1-3.4-6.52,27.81,27.81,0,0,1-1.13-8.07,26.3,26.3,0,0,1,1.22-8.1,19.49,19.49,0,0,1,3.56-6.61,16.62,16.62,0,0,1,5.86-4.45,18.89,18.89,0,0,1,8-1.63,20.29,20.29,0,0,1,5.86.83,15.74,15.74,0,0,1,4.92,2.43,13.69,13.69,0,0,1,3.59,4,14.7,14.7,0,0,1,1.88,5.55h-5.25A9.77,9.77,0,0,0,486.51,183.7Z" transform="translate(-40.28 -158.01)"/><path d="M501.13,197.44a13.34,13.34,0,0,1,2.65-4.75,12.49,12.49,0,0,1,4.37-3.18,16,16,0,0,1,12,0,12.57,12.57,0,0,1,4.34,3.18,13.37,13.37,0,0,1,2.65,4.75,19,19,0,0,1,.88,5.89,18.78,18.78,0,0,1-.88,5.86,13.39,13.39,0,0,1-2.65,4.73,12.26,12.26,0,0,1-4.34,3.15,16.36,16.36,0,0,1-12,0,12.19,12.19,0,0,1-4.37-3.15,13.36,13.36,0,0,1-2.65-4.73,18.78,18.78,0,0,1-.88-5.86A19,19,0,0,1,501.13,197.44Zm4.78,10.5a9.63,9.63,0,0,0,1.91,3.37,8.26,8.26,0,0,0,2.85,2.07,8.66,8.66,0,0,0,6.91,0,8.27,8.27,0,0,0,2.85-2.07,9.65,9.65,0,0,0,1.91-3.37,15.76,15.76,0,0,0,0-9.23,10,10,0,0,0-1.91-3.4,8.13,8.13,0,0,0-2.85-2.1,8.66,8.66,0,0,0-6.91,0,8.12,8.12,0,0,0-2.85,2.1,10,10,0,0,0-1.91,3.4,15.74,15.74,0,0,0,0,9.23Z" transform="translate(-40.28 -158.01)"/><path d="M538.49,178.12v39.46h-4.7V178.12Z" transform="translate(-40.28 -158.01)"/><path d="M545.12,197.44a13.34,13.34,0,0,1,2.65-4.75,12.49,12.49,0,0,1,4.37-3.18,16,16,0,0,1,12,0,12.57,12.57,0,0,1,4.34,3.18,13.37,13.37,0,0,1,2.65,4.75,19,19,0,0,1,.88,5.89,18.78,18.78,0,0,1-.88,5.86,13.39,13.39,0,0,1-2.65,4.73,12.26,12.26,0,0,1-4.34,3.15,16.36,16.36,0,0,1-12,0,12.19,12.19,0,0,1-4.37-3.15,13.36,13.36,0,0,1-2.65-4.73,18.78,18.78,0,0,1-.88-5.86A19,19,0,0,1,545.12,197.44Zm4.78,10.5a9.63,9.63,0,0,0,1.91,3.37,8.26,8.26,0,0,0,2.85,2.07,8.66,8.66,0,0,0,6.91,0,8.27,8.27,0,0,0,2.85-2.07,9.65,9.65,0,0,0,1.91-3.37,15.76,15.76,0,0,0,0-9.23,10,10,0,0,0-1.91-3.4,8.13,8.13,0,0,0-2.85-2.1,8.66,8.66,0,0,0-6.91,0,8.12,8.12,0,0,0-2.85,2.1,10,10,0,0,0-1.91,3.4,15.74,15.74,0,0,0,0,9.23Z" transform="translate(-40.28 -158.01)"/><path d="M581.76,189v6h.11a12.72,12.72,0,0,1,4.2-5.14,10.56,10.56,0,0,1,6.3-1.55v5a13.3,13.3,0,0,0-4.81.77,7.58,7.58,0,0,0-3.21,2.27,9.37,9.37,0,0,0-1.77,3.62,19.53,19.53,0,0,0-.55,4.89v12.71h-4.7V189Z" transform="translate(-40.28 -158.01)"/><path d="M621.22,217.47a6.65,6.65,0,0,1-3.37.72,4,4,0,0,1-2.9-1,4.44,4.44,0,0,1-1.08-3.34,11.23,11.23,0,0,1-4.5,3.34,15.55,15.55,0,0,1-9.23.58,8.53,8.53,0,0,1-3-1.38,6.64,6.64,0,0,1-2-2.46,8.28,8.28,0,0,1-.75-3.68,8.4,8.4,0,0,1,.83-4,7.23,7.23,0,0,1,2.18-2.51,10,10,0,0,1,3.09-1.46q1.74-.5,3.57-.83t3.68-.58a20.28,20.28,0,0,0,3.07-.55,5.1,5.1,0,0,0,2.1-1,2.56,2.56,0,0,0,.77-2,4.69,4.69,0,0,0-.58-2.49,4,4,0,0,0-1.49-1.44,6.06,6.06,0,0,0-2-.66,15.36,15.36,0,0,0-2.24-.17,9.94,9.94,0,0,0-5,1.13q-2,1.13-2.16,4.28h-4.7a10.16,10.16,0,0,1,1.11-4.48,8.4,8.4,0,0,1,2.65-3,11.13,11.13,0,0,1,3.79-1.63,20,20,0,0,1,4.56-.5,26.8,26.8,0,0,1,3.84.28,10.07,10.07,0,0,1,3.45,1.13,6.62,6.62,0,0,1,2.49,2.4,7.66,7.66,0,0,1,.94,4v14.67a10.93,10.93,0,0,0,.19,2.43q.19.77,1.3.77a5.69,5.69,0,0,0,1.44-.22Zm-7.63-14.65a5.86,5.86,0,0,1-2.32,1q-1.44.3-3,.49t-3.18.44a11.74,11.74,0,0,0-2.87.8,5.2,5.2,0,0,0-2.07,1.57,4.37,4.37,0,0,0-.8,2.78,3.79,3.79,0,0,0,.47,2,3.9,3.9,0,0,0,1.22,1.29,5.11,5.11,0,0,0,1.74.72,9.72,9.72,0,0,0,2.1.22,11.19,11.19,0,0,0,4-.63,8.37,8.37,0,0,0,2.71-1.59,6.3,6.3,0,0,0,1.55-2.09,5.27,5.27,0,0,0,.5-2.12Z" transform="translate(-40.28 -158.01)"/><path d="M646.42,217.58v-3.87h-.11a6.91,6.91,0,0,1-3.65,3.43,13.93,13.93,0,0,1-5.47,1.05,12.89,12.89,0,0,1-5.78-1.22,11.87,11.87,0,0,1-4.09-3.26,14.2,14.2,0,0,1-2.46-4.75,19.53,19.53,0,0,1-.83-5.75,20.15,20.15,0,0,1,.8-5.75,13.53,13.53,0,0,1,2.43-4.73,11.75,11.75,0,0,1,4.09-3.21,13,13,0,0,1,5.72-1.19,13.91,13.91,0,0,1,2.38.22,12.12,12.12,0,0,1,2.54.75,10.87,10.87,0,0,1,2.4,1.38,7.6,7.6,0,0,1,1.91,2.13h.11v-14.7h4.7v39.46Zm-16.88-10.14a10.5,10.5,0,0,0,1.6,3.4,7.84,7.84,0,0,0,2.76,2.38,8.4,8.4,0,0,0,4,.88,7.75,7.75,0,0,0,6.74-3.4,10.27,10.27,0,0,0,1.52-3.45,16.75,16.75,0,0,0,0-8,10,10,0,0,0-1.57-3.45,8,8,0,0,0-2.79-2.4,8.72,8.72,0,0,0-4.15-.91,8.08,8.08,0,0,0-4,.94,7.5,7.5,0,0,0-2.65,2.49,10.81,10.81,0,0,0-1.44,3.54,18.78,18.78,0,0,0-.44,4.09A14.59,14.59,0,0,0,629.54,207.44Z" transform="translate(-40.28 -158.01)"/><path d="M657.7,197.44a13.34,13.34,0,0,1,2.65-4.75,12.49,12.49,0,0,1,4.37-3.18,16,16,0,0,1,12,0,12.57,12.57,0,0,1,4.34,3.18,13.37,13.37,0,0,1,2.65,4.75,19,19,0,0,1,.88,5.89,18.78,18.78,0,0,1-.88,5.86,13.39,13.39,0,0,1-2.65,4.73,12.26,12.26,0,0,1-4.34,3.15,16.36,16.36,0,0,1-12,0,12.19,12.19,0,0,1-4.37-3.15,13.36,13.36,0,0,1-2.65-4.73,18.78,18.78,0,0,1-.88-5.86A19,19,0,0,1,657.7,197.44Zm4.78,10.5a9.63,9.63,0,0,0,1.91,3.37,8.26,8.26,0,0,0,2.85,2.07,8.66,8.66,0,0,0,6.91,0,8.27,8.27,0,0,0,2.85-2.07,9.65,9.65,0,0,0,1.91-3.37,15.76,15.76,0,0,0,0-9.23,10,10,0,0,0-1.91-3.4,8.13,8.13,0,0,0-2.85-2.1,8.66,8.66,0,0,0-6.91,0,8.12,8.12,0,0,0-2.85,2.1,10,10,0,0,0-1.91,3.4,15.74,15.74,0,0,0,0,9.23Z" transform="translate(-40.28 -158.01)"/><path d="M724.3,178.12a24.58,24.58,0,0,1,5.14.5,11.12,11.12,0,0,1,4,1.63,7.59,7.59,0,0,1,2.57,3,10.59,10.59,0,0,1,.91,4.64,8.63,8.63,0,0,1-1.35,5,9.84,9.84,0,0,1-4,3.26,9.49,9.49,0,0,1,5.44,3.68,12.06,12.06,0,0,1,.63,11.5,10.08,10.08,0,0,1-3.12,3.57,13.83,13.83,0,0,1-4.48,2,20.21,20.21,0,0,1-5.17.66H705.72V178.12Zm-1.11,16A6.23,6.23,0,0,0,727,193a4.17,4.17,0,0,0,1.49-3.59,4.59,4.59,0,0,0-.5-2.27,3.69,3.69,0,0,0-1.33-1.38,5.6,5.6,0,0,0-1.91-.69,12.63,12.63,0,0,0-2.24-.19H714.4v9.23Zm.5,16.75a11.59,11.59,0,0,0,2.43-.25,6,6,0,0,0,2-.83,4.19,4.19,0,0,0,1.41-1.57,5.43,5.43,0,0,0,.52-2.54q0-3-1.71-4.34a7.31,7.31,0,0,0-4.53-1.3H714.4v10.83Z" transform="translate(-40.28 -158.01)"/><path d="M744,197.1a13.06,13.06,0,0,1,7.63-7.79,16.32,16.32,0,0,1,6.08-1.08,16.54,16.54,0,0,1,6.11,1.08,13,13,0,0,1,7.65,7.79,17.56,17.56,0,0,1,1,6.22,17.34,17.34,0,0,1-1,6.19,13.44,13.44,0,0,1-3,4.72,13,13,0,0,1-4.67,3,17,17,0,0,1-6.11,1,16.72,16.72,0,0,1-6.08-1,13,13,0,0,1-4.64-3,13.39,13.39,0,0,1-3-4.72,17.31,17.31,0,0,1-1-6.19A17.53,17.53,0,0,1,744,197.1Zm7.13,9.56a8.9,8.9,0,0,0,1.13,2.93,6,6,0,0,0,2.13,2.07,6.49,6.49,0,0,0,3.32.77,6.65,6.65,0,0,0,3.34-.77,6,6,0,0,0,2.16-2.07,8.92,8.92,0,0,0,1.13-2.93,16.71,16.71,0,0,0,.33-3.34,17.14,17.14,0,0,0-.33-3.37,8.62,8.62,0,0,0-1.13-2.93,6.3,6.3,0,0,0-2.16-2.07,6.47,6.47,0,0,0-3.34-.8,6,6,0,0,0-5.44,2.87A8.6,8.6,0,0,0,751.1,200a17.22,17.22,0,0,0-.33,3.37A16.79,16.79,0,0,0,751.1,206.67Z" transform="translate(-40.28 -158.01)"/><path d="M796.92,217.58v-4h-.17a8.82,8.82,0,0,1-3.87,3.59A11.42,11.42,0,0,1,788,218.3a13.73,13.73,0,0,1-5.17-.83,7.44,7.44,0,0,1-3.18-2.35,9.19,9.19,0,0,1-1.63-3.7,23,23,0,0,1-.47-4.84V189h7.85v16.14a10,10,0,0,0,1.11,5.28q1.1,1.74,3.92,1.74a5.44,5.44,0,0,0,4.64-1.91q1.44-1.91,1.44-6.27V189h7.85v28.57Z" transform="translate(-40.28 -158.01)"/><path d="M818.41,178.12v39.46h-7.85V178.12Z" transform="translate(-40.28 -158.01)"/><path d="M844.89,213.93a8.1,8.1,0,0,1-3.62,3.34,12.05,12.05,0,0,1-5.06,1,12.22,12.22,0,0,1-5.64-1.24,11.33,11.33,0,0,1-4-3.37,15.27,15.27,0,0,1-2.38-4.89,20.52,20.52,0,0,1-.8-5.75,19.28,19.28,0,0,1,.8-5.55,14.43,14.43,0,0,1,2.38-4.73,11.54,11.54,0,0,1,9.48-4.53,11.24,11.24,0,0,1,4.84,1.08,8.42,8.42,0,0,1,3.62,3.18h.11V178.12h7.85v39.46H845v-3.65Zm-.33-14.12a8.34,8.34,0,0,0-1.13-2.87,6.39,6.39,0,0,0-2.07-2,6.08,6.08,0,0,0-3.2-.77,6.38,6.38,0,0,0-3.26.77,6.12,6.12,0,0,0-2.13,2,9,9,0,0,0-1.16,2.9,15.76,15.76,0,0,0-.36,3.4,14.51,14.51,0,0,0,.39,3.32,9,9,0,0,0,1.24,3,6.86,6.86,0,0,0,2.16,2.1,5.83,5.83,0,0,0,3.12.8,6.22,6.22,0,0,0,3.23-.77,5.88,5.88,0,0,0,2.07-2.07,9.3,9.3,0,0,0,1.11-3,17.41,17.41,0,0,0,.33-3.43A17,17,0,0,0,844.56,199.81Z" transform="translate(-40.28 -158.01)"/><path d="M866.77,210.73a8,8,0,0,0,9.17.52,4.94,4.94,0,0,0,2.1-2.51H885q-1.66,5.14-5.08,7.35a15,15,0,0,1-8.29,2.21,16.33,16.33,0,0,1-6.08-1.08,12.65,12.65,0,0,1-4.59-3.07,13.79,13.79,0,0,1-2.9-4.75,17.39,17.39,0,0,1-1-6.08,16.67,16.67,0,0,1,1.05-6,13.82,13.82,0,0,1,7.6-8,14.79,14.79,0,0,1,5.94-1.16,13.59,13.59,0,0,1,6.36,1.41,12.7,12.7,0,0,1,4.45,3.79,15.58,15.58,0,0,1,2.52,5.42,20.22,20.22,0,0,1,.55,6.36H864.84Q865,209,866.77,210.73Zm8.87-15a5.52,5.52,0,0,0-4.28-1.55,6.83,6.83,0,0,0-3.12.63,6,6,0,0,0-2,1.58,5.77,5.77,0,0,0-1,2,9,9,0,0,0-.36,1.88h12.77A9.08,9.08,0,0,0,875.64,195.69Z" transform="translate(-40.28 -158.01)"/><path d="M897.56,189v5.31h.11a9.59,9.59,0,0,1,1.49-2.46,9.81,9.81,0,0,1,2.16-1.93,10.56,10.56,0,0,1,2.6-1.24,9.39,9.39,0,0,1,2.87-.44,6.13,6.13,0,0,1,1.71.28v7.3q-.55-.11-1.33-.19a14,14,0,0,0-1.49-.08,8.38,8.38,0,0,0-3.65.72,6.33,6.33,0,0,0-2.4,2,7.87,7.87,0,0,0-1.3,2.9,15.81,15.81,0,0,0-.39,3.59v12.88H890.1V189Z" transform="translate(-40.28 -158.01)"/></svg>